<svg id="Capa_1" data-name="Capa 1" xmlns="http://www.w3.org/2000/svg" xmlns:xlink="http://www.w3.org/1999/xlink" viewBox="0 0 737.9 158.53"><defs><style>.cls-1{fill:none;}.cls-2{clip-path:url(#clip-path);}.cls-3{fill:#d07400;}.cls-4{fill:#3a64a5;}.cls-5{font-size:41.27px;fill:#67666a;font-family:MyriadPro-Bold, Myriad Pro;font-weight:700;letter-spacing:0.54em;}.cls-6{letter-spacing:0.54em;}.cls-7{letter-spacing:0.47em;}.cls-8{letter-spacing:0.54em;}.cls-9{letter-spacing:0.54em;}.cls-10{letter-spacing:0.54em;}.cls-11{letter-spacing:0.54em;}.cls-12{letter-spacing:0em;}</style><clipPath id="clip-path" transform="translate(-31 -17.24)"><rect class="cls-1" width="792" height="197"/></clipPath></defs><title>logomm</title><g class="cls-2"><path class="cls-3" d="M98.43,127l54-72.4a33.18,33.18,0,0,1,12.32-10.27,33.56,33.56,0,0,1,29.56,0,33.15,33.15,0,0,1,12.31,10.27l54,72.4H229.08L186.25,69.79a8.08,8.08,0,0,0-13.5,0L129.91,127Z" transform="translate(-31 -17.24)"/><path class="cls-4" d="M441.77,43.41l42.84,57.19a8.07,8.07,0,0,0,13.49,0l42.84-57.19h31.49l-54,72.39a33.17,33.17,0,0,1-12.31,10.28,33.56,33.56,0,0,1-29.56,0,33.12,33.12,0,0,1-12.32-10.28l-54-72.39Z" transform="translate(-31 -17.24)"/><path class="cls-3" d="M298.33,127.5a41.27,41.27,0,0,1-16.49-3.31,41.92,41.92,0,0,1-22.37-22.38,42.59,42.59,0,0,1,0-33,41.85,41.85,0,0,1,22.37-22.37,41.28,41.28,0,0,1,16.49-3.32H369.2a41.27,41.27,0,0,1,16.48,3.32,41.92,41.92,0,0,1,22.38,22.37,42.71,42.71,0,0,1,0,33,42,42,0,0,1-22.38,22.38,41.26,41.26,0,0,1-16.48,3.31Zm0-58.66a16.46,16.46,0,0,0-16.49,16.49,16.46,16.46,0,0,0,16.49,16.48H369.2a16.46,16.46,0,0,0,16.48-16.48A16.46,16.46,0,0,0,369.2,68.84Z" transform="translate(-31 -17.24)"/><path class="cls-4" d="M682,127.5H614.77a41.27,41.27,0,0,1-16.49-3.31,41.92,41.92,0,0,1-22.37-22.38,42.59,42.59,0,0,1,0-33,41.85,41.85,0,0,1,22.37-22.37,41.28,41.28,0,0,1,16.49-3.32h66.16a41.27,41.27,0,0,1,16.48,3.32,41.92,41.92,0,0,1,22.38,22.37,41.27,41.27,0,0,1,3.31,16.49V127.5H697.41V85.33a16.44,16.44,0,0,0-16.48-16.49H614.77a16.46,16.46,0,0,0-16.49,16.49,16.44,16.44,0,0,0,16.49,16.48H682Z" transform="translate(-31 -17.24)"/><rect class="cls-4" x="704.31" width="25.69" height="110.26"/><path class="cls-3" d="M31,127l54-72.4A33.15,33.15,0,0,1,97.29,44.31a33.56,33.56,0,0,1,29.56,0,33.26,33.26,0,0,1,12.32,10.27l54,72.4H161.66L118.82,69.79a8.08,8.08,0,0,0-13.5,0L62.49,127Z" transform="translate(-31 -17.24)"/><text class="cls-5" transform="translate(0 148.21)">D<tspan class="cls-6" x="50.97" y="0">IGI</tspan><tspan class="cls-7" x="169.48" y="0">T</tspan><tspan class="cls-8" x="211.41" y="0">AL </tspan><tspan class="cls-9" x="334.76" y="0">M</tspan><tspan class="cls-8" x="391.83" y="0">ARK</tspan><tspan class="cls-10" x="535.57" y="0">E</tspan><tspan class="cls-11" x="580.05" y="0">TIN</tspan><tspan class="cls-12" x="709.76" y="0">G</tspan></text></g></svg>